<?xml version="1.0" standalone="no"?>
<!DOCTYPE svg PUBLIC "-//W3C//DTD SVG 20010904//EN"
 "http://www.w3.org/TR/2001/REC-SVG-20010904/DTD/svg10.dtd">
<svg version="1.0" xmlns="http://www.w3.org/2000/svg"
 width="512.000000pt" height="512.000000pt" viewBox="0 0 512.000000 512.000000"
 preserveAspectRatio="xMidYMid meet">
<metadata>
Created by potrace 1.16, written by Peter Selinger 2001-2019
</metadata>
<g transform="translate(0.000000,512.000000) scale(0.100000,-0.100000)"
fill="#000000" stroke="none">
<path d="M600 4540 c-222 -58 -415 -213 -515 -415 -91 -182 -85 -70 -85 -1565
0 -1498 -6 -1382 87 -1570 40 -81 62 -109 148 -195 86 -86 114 -108 195 -148
52 -26 131 -56 174 -67 78 -20 118 -20 1956 -20 1838 0 1878 0 1956 20 43 11
122 41 174 67 81 40 109 62 195 148 86 86 108 114 148 195 60 121 87 226 87
343 0 78 -3 96 -25 133 -37 63 -95 94 -175 94 -126 0 -189 -67 -209 -224 -14
-113 -45 -181 -115 -252 -66 -65 -136 -100 -231 -114 -96 -13 -3514 -13 -3610
0 -95 14 -165 49 -231 114 -65 66 -100 136 -114 231 -13 95 -13 2395 0 2490
14 95 49 165 114 231 66 65 136 100 231 114 96 13 3514 13 3610 0 95 -14 165
-49 231 -114 65 -66 100 -136 114 -231 6 -42 10 -360 10 -789 l0 -719 25 -43
c37 -63 95 -94 175 -94 80 0 138 31 175 94 l25 43 0 790 c0 898 3 862 -84
1038 -101 203 -296 359 -520 415 -78 20 -115 20 -1960 19 -1826 0 -1883 -1
-1956 -19z"/>
<path d="M1386 3641 c-276 -77 -496 -300 -566 -575 -19 -73 -20 -110 -20 -506
0 -396 1 -433 20 -506 64 -251 240 -451 480 -547 100 -39 174 -50 317 -45 110
4 140 9 215 35 215 75 403 253 478 452 43 115 12 218 -81 270 -34 20 -52 23
-114 19 -64 -3 -78 -7 -112 -34 -23 -18 -54 -60 -78 -107 -48 -92 -108 -155
-183 -193 -52 -26 -66 -29 -162 -29 -100 0 -108 1 -168 34 -112 61 -184 163
-202 288 -12 84 -13 623 -1 715 28 217 212 364 423 336 124 -16 225 -94 291
-224 58 -114 102 -144 211 -144 161 0 239 143 168 310 -85 198 -260 359 -470
433 -79 28 -100 31 -232 34 -119 2 -158 -1 -214 -16z"/>
<path d="M3346 3641 c-276 -77 -496 -300 -566 -575 -19 -73 -20 -110 -20 -506
0 -396 1 -433 20 -506 64 -251 240 -451 480 -547 100 -39 174 -50 317 -45 110
4 140 9 215 35 215 75 403 253 478 452 43 115 12 218 -81 270 -34 20 -52 23
-114 19 -64 -3 -78 -7 -112 -34 -23 -18 -54 -60 -78 -107 -48 -92 -108 -155
-183 -193 -52 -26 -66 -29 -162 -29 -100 0 -108 1 -168 34 -112 61 -184 163
-202 288 -12 84 -13 623 -1 715 28 217 212 364 423 336 124 -16 225 -94 291
-224 58 -114 102 -144 211 -144 161 0 239 143 168 310 -85 198 -260 359 -470
433 -79 28 -100 31 -232 34 -119 2 -158 -1 -214 -16z"/>
</g>
</svg>
