<?xml version="1.0" standalone="no"?>
<!DOCTYPE svg PUBLIC "-//W3C//DTD SVG 20010904//EN"
 "http://www.w3.org/TR/2001/REC-SVG-20010904/DTD/svg10.dtd">
<svg version="1.0" xmlns="http://www.w3.org/2000/svg"
 width="140.000000pt" height="140.000000pt" viewBox="0 0 140.000000 140.000000"
 preserveAspectRatio="xMidYMid meet">
<metadata>
Created by potrace 1.16, written by Peter Selinger 2001-2019
</metadata>
<g transform="translate(0.000000,140.000000) scale(0.100000,-0.100000)"
fill="#000000" stroke="none">
<path d="M555 1344 c-38 -9 -108 -34 -155 -56 -69 -33 -101 -57 -171 -127 -70
-70 -94 -102 -127 -171 -124 -260 -81 -545 113 -748 84 -89 167 -142 280 -179
112 -37 275 -39 385 -5 121 38 187 79 280 172 93 93 134 159 172 280 34 110
32 273 -5 385 -37 113 -90 196 -179 280 -159 152 -377 214 -593 169z m338
-222 c36 -18 78 -47 93 -65 27 -31 80 -135 73 -142 -9 -9 -164 -43 -167 -37
-30 82 -98 132 -177 132 -139 -1 -205 -93 -205 -285 0 -100 18 -177 51 -219
47 -60 149 -83 224 -52 38 16 90 82 100 127 4 16 11 29 16 29 30 0 159 -46
159 -57 0 -28 -50 -123 -85 -161 -55 -62 -131 -94 -235 -100 -102 -5 -171 11
-243 59 -106 70 -158 177 -165 338 -7 161 22 263 100 347 86 94 165 125 304
121 79 -2 100 -7 157 -35z"/>
</g>
</svg>
