<?xml version="1.0" standalone="no"?>
<!DOCTYPE svg PUBLIC "-//W3C//DTD SVG 20010904//EN"
 "http://www.w3.org/TR/2001/REC-SVG-20010904/DTD/svg10.dtd">
<svg version="1.0" xmlns="http://www.w3.org/2000/svg"
 width="141.000000pt" height="144.000000pt" viewBox="0 0 141.000000 144.000000"
 preserveAspectRatio="xMidYMid meet">
<metadata>
Created by potrace 1.16, written by Peter Selinger 2001-2019
</metadata>
<g transform="translate(0.000000,144.000000) scale(0.100000,-0.100000)"
fill="#000000" stroke="none">
<path d="M565 1364 c-113 -22 -225 -84 -315 -173 -86 -85 -136 -167 -172 -281
-34 -110 -32 -273 5 -386 68 -205 228 -361 437 -425 113 -35 265 -32 379 6
241 82 403 277 442 534 41 267 -108 549 -355 670 -135 66 -273 84 -421 55z
m310 -250 c60 -21 132 -90 163 -157 35 -74 45 -140 40 -268 -4 -115 -5 -121
-44 -196 -27 -54 -52 -87 -82 -110 -71 -54 -120 -63 -349 -63 l-203 0 0 403
c0 222 3 407 8 412 4 4 99 5 212 2 160 -4 216 -9 255 -23z"/>
<path d="M570 725 l0 -267 118 3 c102 4 121 7 149 27 51 36 68 96 68 242 0
115 -2 129 -25 169 -43 75 -64 85 -196 90 l-114 3 0 -267z"/>
</g>
</svg>
